<?xml version="1.0" standalone="no"?>
<!DOCTYPE svg PUBLIC "-//W3C//DTD SVG 20010904//EN"
 "http://www.w3.org/TR/2001/REC-SVG-20010904/DTD/svg10.dtd">
<svg version="1.0" xmlns="http://www.w3.org/2000/svg"
 width="520.000000pt" height="520.000000pt" viewBox="0 0 520.000000 520.000000"
 preserveAspectRatio="xMidYMid meet">
<metadata>
Created by potrace 1.11, written by Peter Selinger 2001-2013
</metadata>
<g transform="translate(0.000000,520.000000) scale(0.100000,-0.100000)"
fill="#000000" stroke="none">
<path d="M2446 5187 c17 -28 420 -591 446 -622 5 -5 81 -107 168 -225 88 -118
186 -249 218 -290 32 -41 125 -163 208 -269 191 -249 633 -805 643 -809 4 -1
15 35 24 80 9 46 26 126 37 178 23 103 96 460 104 506 3 16 19 99 36 184 17
85 33 171 36 190 3 19 7 46 10 60 2 14 13 77 24 140 11 63 22 120 24 126 5 14
-59 77 -182 178 -288 237 -648 417 -1018 510 -54 13 -115 27 -134 30 -19 3
-44 7 -55 10 -11 2 -47 7 -80 11 -32 4 -68 9 -80 12 -11 2 -114 6 -228 8 -161
3 -206 2 -201 -8z"/>
<path d="M2319 5186 c-2 -2 -35 -7 -74 -11 -38 -4 -72 -8 -75 -10 -3 -2 -23
-6 -45 -9 -56 -9 -236 -54 -309 -77 -366 -117 -721 -327 -1010 -599 -71 -67
-225 -238 -250 -278 -6 -11 221 -422 321 -580 18 -29 33 -54 33 -57 0 -14 631
-1058 656 -1085 12 -13 14 -13 14 0 0 16 216 749 222 756 3 2 20 -18 40 -44
19 -26 259 -346 533 -712 273 -366 506 -678 518 -694 12 -16 194 -259 405
-540 210 -281 388 -518 395 -526 6 -9 45 -59 84 -112 l73 -97 -21 -101 c-11
-56 -19 -103 -17 -106 9 -8 236 135 353 223 112 85 313 272 406 377 119 137
273 372 359 545 120 242 216 553 245 791 16 130 20 200 20 360 0 166 -4 233
-19 350 -35 275 -139 597 -275 856 -44 83 -156 270 -171 284 -3 3 -33 43 -68
88 -34 46 -62 81 -62 79 0 -3 -7 -39 -16 -79 -8 -40 -18 -84 -20 -98 -3 -14
-32 -155 -65 -315 -34 -159 -67 -324 -76 -365 -8 -41 -16 -85 -19 -98 -3 -13
-16 -76 -30 -140 -20 -91 -85 -415 -140 -697 -2 -11 -6 -29 -8 -40 -15 -72
-69 -334 -72 -355 -3 -14 -14 -68 -24 -120 -10 -52 -21 -106 -24 -120 -2 -14
-7 -36 -10 -50 -3 -14 -8 -36 -10 -50 -2 -14 -20 -106 -40 -205 -20 -99 -38
-189 -40 -200 -73 -379 -90 -447 -103 -429 -34 47 -740 991 -848 1134 -66 87
-304 406 -530 707 -225 301 -413 553 -418 558 -36 43 -207 280 -207 287 0 4
39 137 86 295 47 159 105 353 129 433 24 80 73 244 109 365 36 121 86 286 110
368 l44 147 -27 0 c-15 0 -30 -2 -32 -4z"/>
<path d="M1876 2722 c-2 -4 -14 -41 -24 -82 -34 -128 -262 -962 -277 -1015
-14 -46 -82 -291 -90 -325 -10 -39 -148 -545 -190 -695 -18 -66 -36 -133 -40
-149 -5 -25 -8 -27 -20 -15 -7 8 -167 268 -355 579 -189 311 -357 588 -375
615 -28 43 -100 161 -130 213 -5 9 -75 124 -155 254 -80 131 -152 250 -160
266 -9 15 -25 41 -37 57 l-21 29 3 -29 c2 -17 6 -57 9 -90 3 -33 8 -71 10 -85
2 -14 7 -43 10 -65 11 -72 16 -99 42 -205 24 -97 68 -241 92 -300 117 -292
280 -568 451 -764 67 -77 255 -260 331 -323 81 -67 301 -223 314 -223 4 0 25
-12 49 -27 98 -62 332 -168 467 -211 295 -94 512 -127 825 -127 226 1 380 16
554 56 25 6 53 12 61 14 114 24 352 108 474 169 l43 21 -204 280 c-112 154
-240 331 -286 394 -45 62 -89 121 -97 132 -8 10 -67 88 -130 174 -134 182
-315 426 -327 440 -5 6 -22 28 -38 50 -17 22 -32 42 -35 45 -3 3 -68 88 -144
190 -119 157 -352 460 -393 510 -49 60 -176 227 -180 238 -6 14 -19 16 -27 4z"/>
</g>
</svg>
