<?xml version="1.0" encoding="UTF-8" standalone="no"?>
<!DOCTYPE svg PUBLIC "-//W3C//DTD SVG 1.1//EN" "http://www.w3.org/Graphics/SVG/1.1/DTD/svg11.dtd">
<svg width="100%" height="100%" viewBox="0 0 512 512" version="1.1" xmlns="http://www.w3.org/2000/svg" xmlns:xlink="http://www.w3.org/1999/xlink" xml:space="preserve" xmlns:serif="http://www.serif.com/" style="fill-rule:evenodd;clip-rule:evenodd;stroke-linejoin:round;stroke-miterlimit:2;">
    <g transform="matrix(0.985943,0,0,0.985943,-0.197189,-0.197189)">
        <path d="M187.6,247.8C187.4,248.2 186.2,251.9 185.2,256C181.8,268.8 159,352.2 157.5,357.5C156.1,362.1 149.3,386.6 148.5,390C147.5,393.9 133.7,444.5 129.5,459.5C127.7,466.1 125.9,472.8 125.5,474.4C125,476.9 124.7,477.1 123.5,475.9C122.8,475.1 106.8,449.1 88,418C69.1,386.9 52.3,359.2 50.5,356.5C47.7,352.2 40.5,340.4 37.5,335.2C37,334.3 30,322.8 22,309.8C14,296.7 6.8,284.8 6,283.2C5.1,281.7 3.5,279.1 2.3,277.5L0.2,274.6L0.5,277.5C0.7,279.2 1.1,283.2 1.4,286.5C1.7,289.8 2.2,293.6 2.4,295C2.6,296.4 3.1,299.3 3.4,301.5C4.5,308.7 5,311.4 7.6,322C10,331.7 14.4,346.1 16.8,352C28.5,381.2 44.8,408.8 61.9,428.4C68.6,436.1 87.4,454.4 95,460.7C103.1,467.4 125.1,483 126.4,483C126.8,483 128.9,484.2 131.3,485.7C141.1,491.9 164.5,502.5 178,506.8C207.5,516.2 229.2,519.5 260.5,519.5C283.1,519.4 298.5,517.9 315.9,513.9C318.4,513.3 321.2,512.7 322,512.5C333.4,510.1 357.2,501.7 369.4,495.6L373.7,493.5L353.3,465.5C342.1,450.1 329.3,432.4 324.7,426.1C320.2,419.9 315.8,414 315,412.9C314.2,411.9 308.3,404.1 302,395.5C288.6,377.3 270.5,352.9 269.3,351.5C268.8,350.9 267.1,348.7 265.5,346.5C263.8,344.3 262.3,342.3 262,342C261.7,341.7 255.2,333.2 247.6,323C235.7,307.3 212.4,277 208.3,272C203.4,266 190.7,249.3 190.3,248.2C189.7,246.8 188.4,246.6 187.6,247.8ZM231.9,1.4C231.7,1.6 228.4,2.1 224.5,2.5C220.7,2.9 217.3,3.3 217,3.5C216.7,3.7 214.7,4.1 212.5,4.4C206.9,5.3 188.9,9.8 181.6,12.1C145,23.8 109.5,44.8 80.6,72C73.5,78.7 58.1,95.8 55.6,99.8C55,100.9 77.7,142 87.7,157.8C89.5,160.7 91,163.2 91,163.5C91,164.9 154.1,269.3 156.6,272C157.8,273.3 158,273.3 158,272C158,270.4 179.6,197.1 180.2,196.4C180.5,196.2 182.2,198.2 184.2,200.8C186.1,203.4 210.1,235.4 237.5,272C264.8,308.6 288.1,339.8 289.3,341.4C290.5,343 308.7,367.3 329.8,395.4C350.8,423.5 368.6,447.2 369.3,448C369.9,448.9 373.8,453.9 377.7,459.2L385,468.9L382.9,479C381.8,484.6 381,489.3 381.2,489.6C382.1,490.4 404.8,476.1 416.5,467.3C427.7,458.8 447.8,440.1 457.1,429.6C469,415.9 484.4,392.4 493,375.1C505,350.9 514.6,319.8 517.5,296C519.1,283 519.5,276 519.5,260C519.5,243.4 519.1,236.7 517.6,225C514.1,197.5 503.7,165.3 490.1,139.4C485.7,131.1 474.5,112.4 473,111C472.7,110.7 469.7,106.7 466.2,102.2C462.8,97.6 460,94.1 460,94.3C460,94.6 459.3,98.2 458.4,102.2C457.6,106.2 456.6,110.6 456.4,112C456.1,113.4 453.2,127.5 449.9,143.5C446.5,159.4 443.2,175.9 442.3,180C441.5,184.1 440.7,188.5 440.4,189.8C440.1,191.1 438.8,197.4 437.4,203.8C435.4,212.9 428.9,245.3 423.4,273.5C423.2,274.6 422.8,276.4 422.6,277.5C421.1,284.7 415.7,310.9 415.4,313C415.1,314.4 414,319.8 413,325C412,330.2 410.9,335.6 410.6,337C410.4,338.4 409.9,340.6 409.6,342C409.3,343.4 408.8,345.6 408.6,347C408.4,348.4 406.6,357.6 404.6,367.5C402.6,377.4 400.8,386.4 400.6,387.5C393.3,425.4 391.6,432.2 390.3,430.4C386.9,425.7 316.3,331.3 305.5,317C298.9,308.3 275.1,276.4 252.5,246.3C230,216.2 211.2,191 210.7,190.5C207.1,186.2 190,162.5 190,161.8C190,161.4 193.9,148.1 198.6,132.3C203.3,116.4 209.1,97 211.5,89C213.9,81 218.8,64.6 222.4,52.5C226,40.4 231,23.9 233.4,15.7L237.8,1L235.1,1C233.6,1 232.1,1.2 231.9,1.4ZM244.6,1.3C246.3,4.1 286.6,60.4 289.2,63.5C289.7,64 297.3,74.2 306,86C314.8,97.8 324.6,110.9 327.8,115C331,119.1 340.3,131.3 348.6,141.9C367.7,166.8 411.9,222.4 412.9,222.8C413.3,222.9 414.4,219.3 415.3,214.8C416.2,210.2 417.9,202.2 419,197C421.3,186.7 428.6,151 429.4,146.4C429.7,144.8 431.3,136.5 433,128C434.7,119.5 436.3,110.9 436.6,109C436.9,107.1 437.3,104.4 437.6,103C437.8,101.6 438.9,95.3 440,89C441.1,82.7 442.2,77 442.4,76.4C442.9,75 436.5,68.7 424.2,58.6C395.4,34.9 359.4,16.9 322.4,7.6C317,6.3 310.9,4.9 309,4.6C307.1,4.3 304.6,3.9 303.5,3.6C302.4,3.4 298.8,2.9 295.5,2.5C292.3,2.1 288.7,1.6 287.5,1.3C286.4,1.1 276.1,0.7 264.7,0.5C248.6,0.2 244.1,0.3 244.6,1.3Z" style="fill:rgb(207,153,255);fill-rule:nonzero;"/>
    </g>
</svg>
